<svg xmlns="http://www.w3.org/2000/svg" viewBox="0 0 18.46 12.35"><defs><style>.cls-1{fill:#747170;}</style></defs><title>Address</title><g id="Camada_2" data-name="Camada 2"><g id="Camada_1-2" data-name="Camada 1"><path class="cls-1" d="M9.26,7.41h0a.78.78,0,0,0,.39-.12l0,0h0L10.05,7,18.44,0a.09.09,0,0,0-.08,0H.1L0,0,8.82,7.26a.71.71,0,0,0,.44.15M0,1V11.25L6.29,6.17ZM12.18,6.2l6.28,5.05V1Zm-2,1.65a1.43,1.43,0,0,1-.92.32,1.41,1.41,0,0,1-.92-.32L6.89,6.66,0,12.23v0a.11.11,0,0,0,.1.1H18.37a.1.1,0,0,0,.09-.1v0L11.58,6.7Z"/></g></g></svg>