<svg xmlns="http://www.w3.org/2000/svg" viewBox="0 0 31.19 31.19"><defs><style>.cls-1{fill:#fff;}</style></defs><title>Inst</title><g id="Camada_2" data-name="Camada 2"><g id="Camada_1-2" data-name="Camada 1"><path class="cls-1" d="M10.64,15.69a5,5,0,1,1,5,5,5,5,0,0,1-5-5m-3.1,0A8.06,8.06,0,1,0,15.6,7.63a8.07,8.07,0,0,0-8.06,8.06m14.38-8a2,2,0,1,0,2-2.05,2,2,0,0,0-2,2.05M3.1,24.13V7.06a4,4,0,0,1,4-3.95H24.13a4,4,0,0,1,3.95,4V24.13a4,4,0,0,1-3.95,4H7.06a4,4,0,0,1-4-4M7.06,0A7.07,7.07,0,0,0,0,7.06V24.13a7.07,7.07,0,0,0,7.06,7.06H24.13a7.07,7.07,0,0,0,7.06-7.06V7.06A7.07,7.07,0,0,0,24.13,0Z"/></g></g></svg>