<svg xmlns="http://www.w3.org/2000/svg" viewBox="0 0 252.36 143.47"><defs><style>.cls-1,.cls-2,.cls-3,.cls-4{fill:#747170;}.cls-2{font-size:48px;}.cls-2,.cls-3{font-family:CenturyGothic, Century Gothic;}.cls-3{font-size:33.6px;}.cls-4{font-size:19px;font-family:Centaur, Centaur;}</style></defs><title>Logo</title><g id="Camada_2" data-name="Camada 2"><g id="Camada_1-2" data-name="Camada 1"><rect class="cls-1" x="125.95" y="21.45" width="0.28" height="39.56"/><path class="cls-1" d="M122.25,10.73c0-5.92,3.86-10.73,3.86-10.73S130,4.79,130,10.71s-3.87,10.74-3.87,10.74-3.9-4.8-3.91-10.72"/><path class="cls-1" d="M137.62,37.29c6.22-4.63,14.19-4.44,14.19-4.44s-2.11,7.69-8.33,12.32-14.2,4.44-14.2,4.44,2.11-7.69,8.34-12.32"/><path class="cls-1" d="M134.76,24.8A16.64,16.64,0,0,1,144,21.91a16.66,16.66,0,0,1-5.44,8,16.62,16.62,0,0,1-9.27,2.89,16.7,16.7,0,0,1,5.44-8"/><path class="cls-1" d="M126.23,39.61H126c0-3.9,3.69-7.37,3.73-7.4l.19.2s-3.64,3.42-3.64,7.2"/><path class="cls-1" d="M126.23,56.35H126c0-3.9,3.69-7.37,3.73-7.41l.19.2s-3.64,3.43-3.64,7.21"/><path class="cls-1" d="M114.66,37.29c-6.23-4.63-14.2-4.44-14.2-4.44s2.11,7.69,8.34,12.32S123,49.61,123,49.61s-2.11-7.69-8.33-12.32"/><path class="cls-1" d="M117.55,24.8a16.6,16.6,0,0,0-9.26-2.89,16.66,16.66,0,0,0,5.44,8A16.6,16.6,0,0,0,123,32.84a16.7,16.7,0,0,0-5.44-8"/><path class="cls-1" d="M126.32,39.61H126c0-3.78-3.6-7.17-3.63-7.2l.18-.2s3.73,3.5,3.73,7.4"/><path class="cls-1" d="M126.32,56.35H126c0-3.78-3.6-7.17-3.64-7.21l.19-.2s3.73,3.51,3.73,7.41"/><text class="cls-2" transform="translate(0 113.68)">L</text><text class="cls-3" transform="translate(22.17 113.68)">OTE</text><text class="cls-2" transform="translate(83.7 113.68)"><tspan xml:space="preserve"> C</tspan></text><text class="cls-3" transform="translate(136.01 113.68)">RIATIVE</text><text class="cls-4" transform="translate(77.21 138.13)">Building Ideas</text></g></g></svg>