<svg xmlns="http://www.w3.org/2000/svg" viewBox="0 0 15.77 16.7"><defs><style>.cls-1{fill:#747170;}</style></defs><title>mail</title><g id="Camada_2" data-name="Camada 2"><g id="Camada_1-2" data-name="Camada 1"><path class="cls-1" d="M12.05,4.65a.3.3,0,0,0-.18-.35,6.34,6.34,0,0,0-2.6-.52A5.8,5.8,0,0,0,3.48,9.57,2.94,2.94,0,0,0,6.29,12.8a3.74,3.74,0,0,0,3.1-1.55,1.92,1.92,0,0,0,.49.95,2,2,0,0,0,1.47.6c2.2,0,4.42-2,4.42-5.81a6.7,6.7,0,0,0-7-7C3.76,0,0,4,0,9.18A7.18,7.18,0,0,0,7.31,16.7a8.75,8.75,0,0,0,4.26-1,.34.34,0,0,0,.15-.4l-.37-1a.32.32,0,0,0-.19-.19.32.32,0,0,0-.27,0A6.83,6.83,0,0,1,7.56,15C4.21,15,2,12.57,2,9,2,4.79,4.73,1.7,8.56,1.7c3.24,0,5.26,2.08,5.26,5.43,0,2.4-1.12,3.9-2.16,3.9a.43.43,0,0,1-.34-.16c-.14-.17-.32-.66-.05-2ZM9,5.65a4,4,0,0,1,.79.07L9.35,8C9.11,9.37,8,10.91,6.85,10.91a1.24,1.24,0,0,1-1.2-1.43A3.66,3.66,0,0,1,9,5.65"/></g></g></svg>