<svg xmlns="http://www.w3.org/2000/svg" viewBox="0 0 11.2 19.27"><defs><style>.cls-1{fill:#747170;}</style></defs><title>Mobile</title><g id="Camada_2" data-name="Camada 2"><g id="Camada_1-2" data-name="Camada 1"><path class="cls-1" d="M9.9,0H1.3A1.31,1.31,0,0,0,0,1.3V18a1.3,1.3,0,0,0,1.3,1.3H9.9A1.3,1.3,0,0,0,11.2,18V1.3A1.31,1.31,0,0,0,9.9,0M4.23.94H7a.16.16,0,0,1,.16.16A.16.16,0,0,1,7,1.25H4.23a.16.16,0,0,1-.16-.15A.16.16,0,0,1,4.23.94M5.6,18.63A.66.66,0,0,1,5,18a.65.65,0,0,1,1.3,0,.66.66,0,0,1-.65.66m4.69-1.76H.91V2.07h9.38Z"/></g></g></svg>