<svg xmlns="http://www.w3.org/2000/svg" viewBox="0 0 15.87 15.87"><defs><style>.cls-1{fill:#747170;}</style></defs><title>Phone</title><g id="Camada_2" data-name="Camada 2"><g id="Camada_1-2" data-name="Camada 1"><path class="cls-1" d="M14.76,11.41c-2.27-1.83-2.9-.93-3.93.1-.72.72-2.54-.78-4.11-2.36S3.65,5.76,4.36,5.05c1-1,1.93-1.67.11-3.94s-3-.52-4,.47C-.72,2.73.37,7,4.61,11.26s8.53,5.33,9.68,4.18c1-1,2.74-2.21.47-4M2.83,2.34,2.7,2.4l-.38.15-.21.11a1.37,1.37,0,0,0-.21.15c-.07.06-.12.13-.19.2s-.1.17-.14.27a3,3,0,0,0-.09.32c0,.11,0,.23,0,.34a4.22,4.22,0,0,0,0,.64c0,.19.06.35.08.46a1.64,1.64,0,0,1,0,.18l-.09-.16a2.62,2.62,0,0,1-.24-.41A4.36,4.36,0,0,1,1,4c0-.13-.07-.26-.09-.4a2.12,2.12,0,0,1,0-.44A2.42,2.42,0,0,1,.92,2.7a1.74,1.74,0,0,1,.17-.45,2,2,0,0,1,.24-.38,2.55,2.55,0,0,1,.26-.3c.16-.16.31-.28.39-.35a.73.73,0,0,0,.09-.09l0,0,.78,1.21,0,0M14.51,13.91a4.7,4.7,0,0,1-.36.4,1.76,1.76,0,0,1-.28.26,2.25,2.25,0,0,1-.36.24,2.3,2.3,0,0,1-.43.18,2.26,2.26,0,0,1-.45.1h-.44a2.4,2.4,0,0,1-.4-.06,3.1,3.1,0,0,1-.36-.1,2.08,2.08,0,0,1-.3-.13,2.31,2.31,0,0,1-.42-.21l-.16-.08.18,0a3.49,3.49,0,0,0,.46.06,2.81,2.81,0,0,0,.3,0l.32,0a1.75,1.75,0,0,0,.33-.06l.16,0,.15-.07a1.52,1.52,0,0,0,.72-.8,3.72,3.72,0,0,0,.14-.37l.06-.16,1.26.7-.12.15"/></g></g></svg>