<svg xmlns="http://www.w3.org/2000/svg" viewBox="0 0 22.69 31"><defs><style>.cls-1{fill:#7a9095;}.cls-2{fill:none;stroke:#7a9095;stroke-miterlimit:10;stroke-width:0.3px;}</style></defs><title>Editorial</title><g id="Camada_2" data-name="Camada 2"><g id="Layer_6" data-name="Layer 6"><path class="cls-1" d="M22.28.41V30.59H.41V.41H22.28M22.69,0H0V31H22.69V0Z"/><path class="cls-1" d="M20.81,2.11v5H1.88v-5H20.81m.31-.31H1.57V7.41H21.12V1.8Z"/><path class="cls-1" d="M20.81,19.63v9.71H1.88V19.63H20.81m.31-.31H1.57V29.65H21.12V19.32Z"/><path class="cls-1" d="M7.78,12.67v5H1.88v-5h5.9m.31-.31H1.57V18H8.09V12.36Z"/><rect class="cls-1" x="1.57" y="8.44" width="19.54" height="0.45"/><rect class="cls-1" x="1.57" y="10.53" width="19.54" height="0.45"/><line class="cls-2" x1="9.32" y1="14" x2="20.32" y2="14"/><line class="cls-2" x1="9.32" y1="17" x2="20.32" y2="17"/></g></g></svg>