<svg xmlns="http://www.w3.org/2000/svg" viewBox="0 0 44.93 31.03"><defs><style>.cls-1{fill:#7a9095;}</style></defs><title>infografia</title><g id="Camada_2" data-name="Camada 2"><g id="Layer_1" data-name="Layer 1"><path class="cls-1" d="M22.47,31a22.43,22.43,0,0,1-15-5.77l-.17-.15,8.45-8.45.15.12a10.53,10.53,0,0,0,13.14,0l.14-.12,8.46,8.46-.17.15A22.41,22.41,0,0,1,22.47,31ZM7.89,25.1a22.06,22.06,0,0,0,29.1,0l-7.87-7.87a10.89,10.89,0,0,1-6.65,2.25,11,11,0,0,1-6.72-2.29Z"/><path class="cls-1" d="M5.53,23.32l-.15-.17A22.25,22.25,0,0,1,0,9.67V9.45H11.94l0,.19A10.49,10.49,0,0,0,13.9,14.7l.1.15ZM.45,9.87A21.84,21.84,0,0,0,5.55,22.7l7.9-7.9a11,11,0,0,1-1.89-4.93Z"/><path class="cls-1" d="M39.36,23.37,30.89,14.9l.1-.14a10.56,10.56,0,0,0,2-5.12l0-.19H44.93v.22A22.27,22.27,0,0,1,39.51,23.2Zm-7.92-8.51,7.89,7.89A21.8,21.8,0,0,0,44.48,9.87H33.37A10.94,10.94,0,0,1,31.44,14.86Z"/><path class="cls-1" d="M22.47,17.09a8.61,8.61,0,0,1-7.17-3.91A8.39,8.39,0,0,1,14,9.69h0a8.26,8.26,0,0,1-.09-1.15A8.55,8.55,0,0,1,31,8.54a8.38,8.38,0,0,1-.09,1.15,8.37,8.37,0,0,1-1.33,3.56,8.7,8.7,0,0,1-2.07,2.17A8.47,8.47,0,0,1,22.47,17.09Zm0-16.67a8.14,8.14,0,0,0-8.13,8.12,7.48,7.48,0,0,0,.09,1.09h0A7.86,7.86,0,0,0,15.66,13a8.1,8.1,0,0,0,11.61,2.13,8.23,8.23,0,0,0,2-2.07A7.92,7.92,0,0,0,30.5,9.63a7.48,7.48,0,0,0,.09-1.09A8.14,8.14,0,0,0,22.47.42Z"/></g></g></svg>