<svg xmlns="http://www.w3.org/2000/svg" viewBox="0 0 200.97 48"><defs><style>.cls-1{isolation:isolate;}.cls-2,.cls-5{fill:#fff;}.cls-2,.cls-3{stroke:#7a9095;stroke-miterlimit:10;mix-blend-mode:darken;}.cls-2{stroke-width:2px;}.cls-3{fill:none;}.cls-4{fill:#7a9095;}</style></defs><title>Chat button</title><g class="cls-1"><g id="Camada_2" data-name="Camada 2"><g id="Layer_4" data-name="Layer 4"><path class="cls-2" d="M1,48V19.33C1,8.65,8.25,1,18.38,1h164.2C192.71,1,200,8.65,200,19.33V48"/><circle class="cls-3" cx="159.97" cy="25" r="16.5"/><path class="cls-4" d="M171.37,33.29l-2-3.28a5.41,5.41,0,0,0,1.64-3.8c0-3.44-3.51-6.22-7.84-6.22s-7.84,2.78-7.84,6.22,3.51,6.21,7.84,6.21A9.26,9.26,0,0,0,168,31.14Z"/><path class="cls-5" d="M155.92,14.24c-4.64,0-8.41,3-8.41,6.78A5.85,5.85,0,0,0,149,24.9l-3,5,5.16-3.25a9.84,9.84,0,0,0,4.77,1.19c4.64,0,8.41-3,8.41-6.79S160.56,14.24,155.92,14.24Z"/><path class="cls-4" d="M155.92,14.8c-4.33,0-7.84,2.79-7.84,6.22a5.42,5.42,0,0,0,1.64,3.81l-2,3.28L151.14,26a9.19,9.19,0,0,0,4.78,1.29c4.33,0,7.85-2.78,7.85-6.22S160.25,14.8,155.92,14.8Z"/><path d="M26.08,28.94a5.6,5.6,0,0,1-2.32.42,4.09,4.09,0,0,1-4.33-4.43A4.36,4.36,0,0,1,24,20.32a4.8,4.8,0,0,1,2.08.39l-.27.93a4.09,4.09,0,0,0-1.77-.37,3.27,3.27,0,0,0-3.42,3.62A3.19,3.19,0,0,0,24,28.41a4.5,4.5,0,0,0,1.84-.36Z"/><path d="M33,26a3.07,3.07,0,0,1-3.14,3.34,3,3,0,0,1-3-3.23A3.08,3.08,0,0,1,30,22.79,3,3,0,0,1,33,26Zm-5,.07c0,1.37.79,2.41,1.91,2.41s1.91-1,1.91-2.44c0-1.07-.54-2.42-1.89-2.42S28,24.9,28,26.1Z"/><path d="M34.45,24.64c0-.65,0-1.18-.05-1.7h1l.07,1h0a2.32,2.32,0,0,1,2.08-1.19c.87,0,2.23.52,2.23,2.68v3.76H38.66V25.6c0-1-.37-1.86-1.45-1.86a1.64,1.64,0,0,0-1.54,1.17,1.75,1.75,0,0,0-.08.54v3.78H34.45Z"/><path d="M41.94,22.94l1.23,3.53a15.68,15.68,0,0,1,.51,1.62h0c.14-.52.32-1.05.53-1.62l1.22-3.53h1.2L44.2,29.23H43.11l-2.39-6.29Z"/><path d="M48.26,26.29a2,2,0,0,0,2.15,2.19,4.2,4.2,0,0,0,1.75-.33l.19.82a5.11,5.11,0,0,1-2.09.39,2.92,2.92,0,0,1-3.1-3.17c0-1.9,1.12-3.4,3-3.4,2.05,0,2.59,1.81,2.59,3,0,.23,0,.41,0,.53Zm3.35-.82A1.63,1.63,0,0,0,50,23.61a1.9,1.9,0,0,0-1.75,1.86Z"/><path d="M54.13,24.9c0-.74,0-1.38-.05-2h1l0,1.23h.05a1.9,1.9,0,0,1,1.74-1.38,1.66,1.66,0,0,1,.33,0v1.08a2.23,2.23,0,0,0-.39,0,1.61,1.61,0,0,0-1.54,1.47,4.15,4.15,0,0,0-.05.54v3.35H54.13Z"/><path d="M58.23,28.06a3,3,0,0,0,1.5.45c.84,0,1.23-.41,1.23-.93s-.33-.85-1.17-1.16c-1.13-.4-1.67-1-1.67-1.78a2,2,0,0,1,2.17-1.85,3.23,3.23,0,0,1,1.55.39l-.29.84a2.37,2.37,0,0,0-1.28-.37c-.68,0-1.06.39-1.06.86s.38.75,1.2,1.07c1.09.41,1.65,1,1.65,1.89,0,1.11-.86,1.89-2.35,1.89a3.59,3.59,0,0,1-1.77-.43Z"/><path d="M64.17,26.29a2,2,0,0,0,2.16,2.19,4.15,4.15,0,0,0,1.74-.33l.19.82a5.11,5.11,0,0,1-2.09.39,2.91,2.91,0,0,1-3.09-3.17c0-1.9,1.11-3.4,3-3.4,2,0,2.6,1.81,2.6,3a5,5,0,0,1,0,.53Zm3.35-.82a1.62,1.62,0,0,0-1.58-1.86,1.9,1.9,0,0,0-1.76,1.86Z"/><path d="M77.29,29a4.36,4.36,0,0,1-1.81.36,3,3,0,0,1-3.14-3.21,3.2,3.2,0,0,1,3.38-3.34,3.93,3.93,0,0,1,1.59.32l-.26.89a2.6,2.6,0,0,0-1.33-.3A2.17,2.17,0,0,0,73.5,26.1a2.16,2.16,0,0,0,2.19,2.35,3.3,3.3,0,0,0,1.4-.31Z"/><path d="M84.24,26a3.07,3.07,0,0,1-3.13,3.34,3,3,0,0,1-3-3.23,3.08,3.08,0,0,1,3.12-3.35A3,3,0,0,1,84.24,26Zm-5,.07c0,1.37.79,2.41,1.91,2.41s1.91-1,1.91-2.44c0-1.07-.53-2.42-1.89-2.42S79.25,24.9,79.25,26.1Z"/><path d="M85.68,24.64c0-.65,0-1.18-.05-1.7h1l.07,1h0a2.31,2.31,0,0,1,2.08-1.19c.87,0,2.22.52,2.22,2.68v3.76H89.89V25.6c0-1-.37-1.86-1.45-1.86a1.64,1.64,0,0,0-1.54,1.17,1.77,1.77,0,0,0-.07.54v3.78H85.68Z"/><path d="M92.9,24.64c0-.65,0-1.18-.05-1.7h1l.06,1h0A2.31,2.31,0,0,1,96,22.79c.87,0,2.22.52,2.22,2.68v3.76H97.11V25.6c0-1-.38-1.86-1.46-1.86a1.63,1.63,0,0,0-1.53,1.17,1.75,1.75,0,0,0-.08.54v3.78H92.9Z"/><path d="M105.81,26a3.08,3.08,0,0,1-3.14,3.34,3,3,0,0,1-3-3.23,3.08,3.08,0,0,1,3.12-3.35A3,3,0,0,1,105.81,26Zm-5,.07c0,1.37.8,2.41,1.92,2.41s1.91-1,1.91-2.44c0-1.07-.54-2.42-1.89-2.42S100.81,24.9,100.81,26.1Z"/><path d="M107.09,28.06a3,3,0,0,0,1.51.45c.83,0,1.22-.41,1.22-.93s-.32-.85-1.17-1.16c-1.13-.4-1.66-1-1.66-1.78a2,2,0,0,1,2.17-1.85,3.23,3.23,0,0,1,1.55.39l-.29.84a2.41,2.41,0,0,0-1.29-.37c-.67,0-1,.39-1,.86s.38.75,1.2,1.07c1.09.41,1.65,1,1.65,1.89,0,1.11-.86,1.89-2.35,1.89a3.59,3.59,0,0,1-1.77-.43Z"/><path d="M116.88,29a4.32,4.32,0,0,1-1.81.36,3,3,0,0,1-3.13-3.21,3.2,3.2,0,0,1,3.38-3.34,3.93,3.93,0,0,1,1.59.32l-.26.89a2.63,2.63,0,0,0-1.33-.3,2.17,2.17,0,0,0-2.22,2.38,2.15,2.15,0,0,0,2.18,2.35,3.35,3.35,0,0,0,1.41-.31Z"/><path d="M123.84,26a3.08,3.08,0,0,1-3.14,3.34,3,3,0,0,1-3-3.23,3.08,3.08,0,0,1,3.12-3.35A3,3,0,0,1,123.84,26Zm-5,.07c0,1.37.8,2.41,1.92,2.41s1.91-1,1.91-2.44c0-1.07-.54-2.42-1.89-2.42S118.84,24.9,118.84,26.1Z"/></g></g></g></svg>