<svg xmlns="http://www.w3.org/2000/svg" viewBox="0 0 19.12 70.71"><defs><style>.cls-1{fill:none;stroke:#7a9095;stroke-miterlimit:10;}.cls-2{fill:#7a9095;}</style></defs><title>back_to_top</title><g id="Layer_2" data-name="Layer 2"><g id="Layer_4" data-name="Layer 4"><line class="cls-1" x1="14.27" y1="70.71" x2="14.27" y2="0.71"/><polyline class="cls-1" points="18.77 5.21 14.27 0.71 9.77 5.21"/><path class="cls-2" d="M.54,68.42a9.65,9.65,0,0,1-.17-1.9A3.31,3.31,0,0,1,1,64.3a1.69,1.69,0,0,1,1.43-.67A1.91,1.91,0,0,1,4.16,65h0a2.07,2.07,0,0,1,2-1.66A2.15,2.15,0,0,1,7.83,64a4,4,0,0,1,.76,2.79,11.63,11.63,0,0,1-.1,1.62Zm3.31-1v-.95c0-1.1-.58-1.75-1.36-1.75-.94,0-1.31.72-1.31,1.78a4.21,4.21,0,0,0,.07.92Zm3.87,0a5.06,5.06,0,0,0,0-.88c0-1.08-.39-2.07-1.57-2.07s-1.56.95-1.56,2.09v.86Z"/><path class="cls-2" d="M8.52,58.74l-.74.08v0a2.16,2.16,0,0,1,.87,1.78A1.65,1.65,0,0,1,7,62.41c-1.4,0-2.17-1.25-2.16-3.49H4.7a1.19,1.19,0,0,0-1.34,1.32,2.93,2.93,0,0,0,.43,1.51l-.7.24a3.61,3.61,0,0,1-.51-1.91c0-1.77,1.21-2.2,2.37-2.2H7.12a8.44,8.44,0,0,0,1.4-.1Zm-3,.16c0,1.15.18,2.46,1.31,2.46a.94.94,0,0,0,1-1,1.43,1.43,0,0,0-1-1.4,1,1,0,0,0-.34-.06Z"/><path class="cls-2" d="M8.3,52a4,4,0,0,1,.34,1.67,2.76,2.76,0,0,1-3,2.89,3,3,0,0,1-3.08-3.12A3.6,3.6,0,0,1,2.89,52l.82.24a2.37,2.37,0,0,0-.28,1.22,2,2,0,0,0,2.2,2.05,2,2,0,0,0,2.17-2,3,3,0,0,0-.29-1.3Z"/><path class="cls-2" d="M5.37,49.75v0l-.66-.52-2-1.7V46.24L5.1,48.48l3.42-2.55v1.28l-2.79,2,.6.54H8.52v1H0v-1Z"/><path class="cls-2" d="M1,41.35H2.71V39.84h.8v1.51H6.64c.72,0,1.13-.2,1.13-.79A2.15,2.15,0,0,0,7.7,40l.79-.05a2.44,2.44,0,0,1,.15.94A1.47,1.47,0,0,1,8.19,42a2.15,2.15,0,0,1-1.51.4H3.51v.9h-.8v-.9H1.32Z"/><path class="cls-2" d="M5.56,33.47a2.84,2.84,0,0,1,3.09,2.89,2.76,2.76,0,0,1-3,2.78,2.83,2.83,0,0,1-3.08-2.88A2.75,2.75,0,0,1,5.56,33.47Zm.07,4.61c1.27,0,2.23-.74,2.23-1.77s-1-1.76-2.26-1.76c-1,0-2.23.49-2.23,1.74S4.52,38.08,5.63,38.08Z"/><path class="cls-2" d="M1.32,28.51V31H.43V25h.89v2.47h7.2v1.05Z"/><path class="cls-2" d="M5.56,19.72a2.84,2.84,0,0,1,3.09,2.89,2.76,2.76,0,0,1-3,2.78,2.83,2.83,0,0,1-3.08-2.88A2.75,2.75,0,0,1,5.56,19.72Zm.07,4.6c1.27,0,2.23-.73,2.23-1.76s-1-1.76-2.26-1.76c-1,0-2.23.49-2.23,1.74S4.52,24.32,5.63,24.32Z"/><path class="cls-2" d="M4.61,18.38c-.75,0-1.35,0-1.9.05v-.95l1,0v0a2.27,2.27,0,0,1-1.13-2.06c0-1.4,1.19-2.46,3-2.46,2.09,0,3.12,1.27,3.12,2.64a2.05,2.05,0,0,1-.91,1.79v0h3.15v1Zm1.54-1a1.88,1.88,0,0,0,.43-.05,1.62,1.62,0,0,0,1.24-1.58c0-1.12-.91-1.76-2.24-1.76-1.17,0-2.16.61-2.16,1.72a1.69,1.69,0,0,0,1.31,1.6,1.93,1.93,0,0,0,.43.07Z"/></g></g></svg>