<svg xmlns="http://www.w3.org/2000/svg" viewBox="0 0 34 34"><defs><style>.cls-1{isolation:isolate;}.cls-2{fill:none;stroke:#7a9095;stroke-miterlimit:10;mix-blend-mode:darken;}.cls-3{fill:#7a9095;}.cls-4{fill:#fff;}</style></defs><title>Chat</title><g class="cls-1"><g id="Layer_2" data-name="Layer 2"><g id="Layer_4" data-name="Layer 4"><circle class="cls-2" cx="17" cy="17" r="16.5"/><path class="cls-3" d="M28.41,25.29l-2-3.28a5.42,5.42,0,0,0,1.65-3.8c0-3.44-3.51-6.22-7.85-6.22s-7.84,2.78-7.84,6.22,3.51,6.21,7.84,6.21A9.26,9.26,0,0,0,25,23.14Z"/><path class="cls-4" d="M13,6.24c-4.63,0-8.41,3-8.41,6.78A5.85,5.85,0,0,0,6.05,16.9l-3,5,5.16-3.25A9.77,9.77,0,0,0,13,19.81c4.64,0,8.41-3,8.41-6.79S17.59,6.24,13,6.24Z"/><path class="cls-3" d="M13,6.8C8.62,6.8,5.11,9.59,5.11,13a5.46,5.46,0,0,0,1.64,3.81l-2,3.28L8.18,18A9.16,9.16,0,0,0,13,19.24c4.34,0,7.85-2.78,7.85-6.22S17.29,6.8,13,6.8Z"/></g></g></g></svg>