<svg xmlns="http://www.w3.org/2000/svg" viewBox="0 0 25.39 31.26"><defs><style>.cls-1{fill:#fff;}</style></defs><title>IdentidadeVisual</title><g id="Layer_2" data-name="Layer 2"><g id="Layer_1-2" data-name="Layer 1"><rect class="cls-1" x="20.77" y="13.24" width="0.42" height="8.79"/><polygon class="cls-1" points="0.42 28.53 0.42 0.42 20.77 0.42 20.77 8.58 21.19 8.58 21.19 0 0 0 0 28.95 4.2 28.95 4.2 28.53 0.42 28.53"/><polygon class="cls-1" points="20.77 22.24 20.77 22.03 4.2 22.03 4.2 28.53 4.41 28.53 4.41 22.24 20.77 22.24"/><polygon class="cls-1" points="21.19 22.03 21.19 22.24 25.18 22.24 25.18 31.05 4.41 31.05 4.41 28.95 4.2 28.95 4.2 31.26 25.39 31.26 25.39 22.03 21.19 22.03"/><rect class="cls-1" x="4.2" y="28.53" width="0.21" height="0.42"/><rect class="cls-1" x="20.77" y="22.03" width="0.42" height="0.21"/><polygon class="cls-1" points="4.62 22.45 20.77 22.45 20.77 22.24 4.41 22.24 4.41 28.53 4.62 28.53 4.62 22.45"/><polygon class="cls-1" points="24.97 22.45 24.97 30.84 4.62 30.84 4.62 28.95 4.41 28.95 4.41 31.05 25.18 31.05 25.18 22.24 21.19 22.24 21.19 22.45 24.97 22.45"/><rect class="cls-1" x="20.77" y="22.24" width="0.42" height="0.21"/><rect class="cls-1" x="4.41" y="28.53" width="0.21" height="0.42"/><polygon class="cls-1" points="15.95 13.24 20.77 13.24 20.77 13.03 16.16 13.03 16.16 8.79 20.77 8.79 20.77 8.58 15.95 8.58 15.95 13.24"/><polygon class="cls-1" points="24.76 8.79 24.76 13.03 21.19 13.03 21.19 13.24 24.97 13.24 24.97 8.58 21.19 8.58 21.19 8.79 24.76 8.79"/><rect class="cls-1" x="20.77" y="8.58" width="0.42" height="0.21"/><rect class="cls-1" x="20.77" y="13.03" width="0.42" height="0.21"/><polygon class="cls-1" points="24.55 9 24.55 12.82 21.19 12.82 21.19 13.03 24.76 13.03 24.76 8.79 21.19 8.79 21.19 9 24.55 9"/><polygon class="cls-1" points="16.16 13.03 20.77 13.03 20.77 12.82 16.36 12.82 16.36 9 20.77 9 20.77 8.79 16.16 8.79 16.16 13.03"/><rect class="cls-1" x="20.77" y="8.79" width="0.42" height="0.21"/><rect class="cls-1" x="20.77" y="12.82" width="0.42" height="0.21"/><path class="cls-1" d="M2.31,1.05a1,1,0,1,0,1,1.05A1,1,0,0,0,2.31,1.05Z"/><rect class="cls-1" x="3.78" y="2.1" width="3.99" height="1.05"/><path class="cls-1" d="M18,9.65a1,1,0,1,0,1.05,1A1,1,0,0,0,18,9.65Z"/><rect class="cls-1" x="21.19" y="10.7" width="2.31" height="1.05"/><rect class="cls-1" x="19.51" y="10.7" width="1.26" height="1.05"/><rect class="cls-1" x="20.77" y="10.7" width="0.42" height="1.05"/><path class="cls-1" d="M6.5,25.18a1.05,1.05,0,1,0-1-1.05A1,1,0,0,0,6.5,25.18Z"/><rect class="cls-1" x="7.97" y="24.13" width="3.99" height="1.05"/><rect class="cls-1" x="11.96" y="4.41" width="7.55" height="0.21"/><rect class="cls-1" x="11.96" y="4.62" width="7.55" height="0.21"/><rect class="cls-1" x="11.96" y="5.87" width="7.55" height="0.21"/><rect class="cls-1" x="11.96" y="5.66" width="7.55" height="0.21"/></g></g></svg>