<svg xmlns="http://www.w3.org/2000/svg" viewBox="0 0 32 32"><defs><style>.cls-1{fill:none;}.cls-2{fill:#fff;}</style></defs><title>marketing</title><g id="Layer_2" data-name="Layer 2"><g id="Layer_1-2" data-name="Layer 1"><path class="cls-1" d="M19.71,27.32a.09.09,0,0,0-.07,0l-1.59,1.83a.94.94,0,0,1-1.64-.56l-.23-3.74H16a8.91,8.91,0,1,1,7.25-3.76l3,3.09a.94.94,0,0,1-.67,1.6h0l-2.42-.05h0a.07.07,0,0,0-.06,0,.06.06,0,0,0,0,.07l1.1,2.48A14.78,14.78,0,1,0,20.94,30l-1.17-2.63S19.74,27.33,19.71,27.32Z"/><path class="cls-2" d="M32,16A16,16,0,1,0,21.41,31.06L20.94,30a14.91,14.91,0,1,1,3.27-1.64l.48,1.07A16,16,0,0,0,32,16Z"/><path class="cls-2" d="M16,24.31a8.31,8.31,0,1,1,6.84-3.59l.41.41A8.88,8.88,0,1,0,16,24.89h.18l0-.57Z"/><path class="cls-2" d="M16.19,14.84a.55.55,0,0,1,.17-.05,1,1,0,0,0-.36-.06,1.27,1.27,0,0,0-.28,2.51l-.09-1.49A.94.94,0,0,1,16.19,14.84Z"/><path class="cls-2" d="M22.55,31.49s0,0,0,0h.06l1.62-.73s0,0,0,0a.06.06,0,0,0,0-.06L24,29.88a18.65,18.65,0,0,1-1.73.87Z"/><path class="cls-2" d="M17,24.82l.23,3.75a.06.06,0,0,0,.05.06.06.06,0,0,0,.08,0L19,26.78a1,1,0,0,1,.71-.32h.14a.93.93,0,0,1,.72.55l1.19,2.67a13.86,13.86,0,0,0,1.72-.87l-1.15-2.59a.93.93,0,0,1,.08-.9,1,1,0,0,1,.8-.42l2.42,0a.06.06,0,0,0,.07,0,.08.08,0,0,0,0-.09l-3-3A8.83,8.83,0,0,1,17,24.82Z"/><path class="cls-2" d="M22.3,21.4l-5.06-5.14a1.26,1.26,0,0,1-.66.86L17,24.25A8.27,8.27,0,0,0,22.3,21.4Z"/><path class="cls-2" d="M22.22,30.75A18.65,18.65,0,0,0,24,29.88l-.48-1.06a13.86,13.86,0,0,1-1.72.87Z"/><path class="cls-2" d="M17,24.25l0,.57a8.83,8.83,0,0,0,5.67-3l-.41-.42A8.27,8.27,0,0,1,17,24.25Z"/><path class="cls-2" d="M16.54,15.62c-.05,0-.05.06,0,.08l.08,1.42a1.26,1.26,0,0,0,.66-.86l-.61-.62A.08.08,0,0,0,16.54,15.62Z"/><path class="cls-2" d="M16.93,15.34l.27.27a1.25,1.25,0,0,0-.84-.82.55.55,0,0,0-.17.05.94.94,0,0,0-.56.91l.09,1.49a1.27,1.27,0,0,0,.28,0l.16,0-.09-1.53A.5.5,0,0,1,16.93,15.34Z"/><path class="cls-2" d="M17.2,15.61l-.27-.27a.5.5,0,0,0-.86.38l.09,1.53a1,1,0,0,0,.42-.13L16.5,15.7s0,0,0-.08a.08.08,0,0,1,.09,0l.61.62a1.09,1.09,0,0,0,0-.26A1.23,1.23,0,0,0,17.2,15.61Z"/></g></g></svg>