<svg xmlns="http://www.w3.org/2000/svg" viewBox="0 0 33.38 33"><defs><style>.cls-1{fill:#fff;}</style></defs><title>Merchandising</title><g id="Layer_2" data-name="Layer 2"><g id="Layer_1-2" data-name="Layer 1"><path class="cls-1" d="M20.54.74a12.83,12.83,0,0,0,1.26.78,14.07,14.07,0,0,0,2.8.91,12.19,12.19,0,0,1,2.82,1l.06,0,.08,0s2.06.65,3.31,5.06v0l0,0,1.76,4.5a6.42,6.42,0,0,1-4.57,1.75l-.64,0c0-.13-.08-.3-.11-.42-.18-.78-.4-1.74-1.17-2l-.47-.14-.25.42C25,13.44,25,16.94,25.22,25c.07,2.55.13,5.19.07,5.64v.08c-.36.56-3.64,1.63-8.54,1.63A31.55,31.55,0,0,1,8.2,31.23L8,31.16c-.13,0-.37-.12-.54-.19.39-2.67.76-14.35.12-17.47l-.31-1.45-.83,1.23c-.13.19-.24.39-.35.58a6.4,6.4,0,0,1-.4.64h0A7.47,7.47,0,0,1,.73,12.67c.41-1.07,1.57-4.06,2-5l0,0v0A9.78,9.78,0,0,1,3.85,5.26a4.74,4.74,0,0,1,3.22-2,15.82,15.82,0,0,0,5.16-2.08L12.8.8a7.14,7.14,0,0,0,3.16,1q.3,0,.6,0a8.64,8.64,0,0,0,4-1.11M20.6,0a8.73,8.73,0,0,1-4,1.22,5,5,0,0,1-.54,0c-1-.1-2.67-.52-3.1-1.14-1.26.52-1.76,1.48-6,2.56A5.29,5.29,0,0,0,3.32,4.93,10.55,10.55,0,0,0,2.19,7.39C1.62,8.58,0,12.83,0,12.83a7.92,7.92,0,0,0,5.64,2.29H6a11.87,11.87,0,0,0,1-1.49c.7,3.34.19,16.19-.18,17.57.19.35.88.5,1.26.63A32.06,32.06,0,0,0,16.73,33c5.1,0,9-1.15,9.16-2.15.25-.65-.57-16.69.1-17.83.67.19.71,2.05,1,2.37a9.83,9.83,0,0,0,1.06.06,6.88,6.88,0,0,0,5.3-2.24L31.47,8.34c-1.38-4.91-3.75-5.49-3.75-5.49-1.77-1-3.84-1-5.64-1.9A10.05,10.05,0,0,1,20.6,0Z"/><path class="cls-1" d="M7.25,13.64l-.63,0C6.82,9.79,4.82,3.35,4.8,3.29l.6-.19C5.49,3.37,7.46,9.71,7.25,13.64Z"/><path class="cls-1" d="M25.67,13C25.62,9.67,27.79,3.22,27.88,3l.6.2c0,.07-2.23,6.62-2.18,9.86Z"/><circle class="cls-1" cx="16.29" cy="10.8" r="4.15"/></g></g></svg>