<svg xmlns="http://www.w3.org/2000/svg" viewBox="0 0 28.17 31"><defs><style>.cls-1{fill:#fff;}</style></defs><title>programasCostumizados</title><g id="Layer_2" data-name="Layer 2"><g id="Layer_1-2" data-name="Layer 1"><path class="cls-1" d="M28.17,31H0V0H28.17ZM.49,30.51H27.67V.49H.49Z"/><rect class="cls-1" x="3.3" y="3.52" width="4.79" height="0.65"/><rect class="cls-1" x="0.25" y="0.25" width="27.67" height="2.4"/><rect class="cls-1" x="3.3" y="6.34" width="4.79" height="0.44"/><rect class="cls-1" x="8.09" y="8.81" width="10.24" height="0.59"/><rect class="cls-1" x="8.09" y="10.22" width="15.25" height="0.71"/><rect class="cls-1" x="3.3" y="14.09" width="4.79" height="0.54"/><rect class="cls-1" x="8.09" y="16.56" width="4.79" height="0.69"/><rect class="cls-1" x="13.32" y="19.02" width="4.79" height="0.62"/><rect class="cls-1" x="18.33" y="21.84" width="4.79" height="0.41"/><path class="cls-1" d="M16.07,25.85l2.15-1.12v.47a.3.3,0,0,1,0,.1.24.24,0,0,1-.09.08l-1,.51-.13.05-.15,0L17,26l.13,0,1,.51a.24.24,0,0,1,.09.08.3.3,0,0,1,0,.1v.47l-2.15-1.12Z"/><path class="cls-1" d="M19.44,27.82a.41.41,0,0,1-.07.11.3.3,0,0,1-.08.08l-.11,0a.18.18,0,0,1-.1,0H18.8L20.38,24a.42.42,0,0,1,.13-.18.37.37,0,0,1,.21-.06H21Z"/><path class="cls-1" d="M21.57,27.24v-.47a.16.16,0,0,1,0-.1.24.24,0,0,1,.09-.08l1-.51A1.51,1.51,0,0,1,23,26l-.15,0-.13-.05-1-.51a.24.24,0,0,1-.09-.08.16.16,0,0,1,0-.1v-.47l2.15,1.12v.27Z"/></g></g></svg>