<svg xmlns="http://www.w3.org/2000/svg" viewBox="0 0 26.38 30.56"><defs><style>.cls-1{fill:#fff;}</style></defs><title>baseDados</title><g id="Layer_2" data-name="Layer 2"><g id="Layer_1-2" data-name="Layer 1"><ellipse class="cls-1" cx="13.19" cy="2.64" rx="13.19" ry="2.64"/><path class="cls-1" d="M26.38,5.38a.78.78,0,0,1-.12.43,1.87,1.87,0,0,1-.29.34,3.58,3.58,0,0,1-.75.49,9.73,9.73,0,0,1-1.64.67,22.58,22.58,0,0,1-3.42.79c-1.15.2-2.32.31-3.48.41s-2.33.11-3.49.13-2.33-.05-3.49-.13S7.37,8.3,6.22,8.1A22.58,22.58,0,0,1,2.8,7.31a9,9,0,0,1-1.64-.67,3.34,3.34,0,0,1-.75-.49,2.43,2.43,0,0,1-.3-.34A.86.86,0,0,1,0,5.38,1,1,0,0,0,.52,6a4.06,4.06,0,0,0,.77.33,11.64,11.64,0,0,0,1.65.39c1.12.21,2.26.32,3.4.42s2.28.17,3.42.2,2.29.06,3.43.06,2.29,0,3.43-.06S18.9,7.23,20,7.15s2.28-.22,3.39-.42a13.37,13.37,0,0,0,1.66-.4A4.36,4.36,0,0,0,25.86,6,1,1,0,0,0,26.38,5.38Z"/><path class="cls-1" d="M26.38,9.76a.74.74,0,0,1-.12.43,1.58,1.58,0,0,1-.29.34,4.08,4.08,0,0,1-.75.5,10.65,10.65,0,0,1-1.64.67,25.28,25.28,0,0,1-3.42.79c-1.15.2-2.32.31-3.48.4s-2.33.12-3.49.13-2.33,0-3.49-.12-2.33-.21-3.48-.41A25.28,25.28,0,0,1,2.8,11.7,10.65,10.65,0,0,1,1.16,11a3.77,3.77,0,0,1-.75-.5,2,2,0,0,1-.3-.34A.81.81,0,0,1,0,9.76a.9.9,0,0,0,.52.62,3.51,3.51,0,0,0,.77.33,11.67,11.67,0,0,0,1.65.4c1.12.2,2.26.32,3.4.42s2.28.16,3.42.19,2.29.07,3.43.06,2.29,0,3.43-.06,2.28-.11,3.42-.19,2.28-.21,3.39-.42a13.34,13.34,0,0,0,1.66-.39,4.4,4.4,0,0,0,.77-.34A.93.93,0,0,0,26.38,9.76Z"/><path class="cls-1" d="M26.38,14.15a.76.76,0,0,1-.12.43,1.87,1.87,0,0,1-.29.34,3.58,3.58,0,0,1-.75.49,9,9,0,0,1-1.64.67,22.58,22.58,0,0,1-3.42.79c-1.15.2-2.32.31-3.48.41s-2.33.11-3.49.13-2.33-.05-3.49-.13-2.33-.2-3.48-.4a25.28,25.28,0,0,1-3.42-.79,10.65,10.65,0,0,1-1.64-.67,3.77,3.77,0,0,1-.75-.5,2.43,2.43,0,0,1-.3-.34A.81.81,0,0,1,0,14.15a1,1,0,0,0,.52.62,4.06,4.06,0,0,0,.77.33,11.64,11.64,0,0,0,1.65.39c1.12.21,2.26.32,3.4.42s2.28.17,3.42.2,2.29.06,3.43.06,2.29,0,3.43-.06S18.9,16,20,15.92s2.28-.22,3.39-.42a11.8,11.8,0,0,0,1.66-.4,3.72,3.72,0,0,0,.77-.33A1,1,0,0,0,26.38,14.15Z"/><path class="cls-1" d="M26.38,18.53a.74.74,0,0,1-.12.43,1.58,1.58,0,0,1-.29.34,4.08,4.08,0,0,1-.75.5,10.65,10.65,0,0,1-1.64.67,25.28,25.28,0,0,1-3.42.79c-1.15.2-2.32.31-3.48.4s-2.33.12-3.49.13-2.33,0-3.49-.12-2.33-.21-3.48-.41a23.86,23.86,0,0,1-3.42-.79,10.65,10.65,0,0,1-1.64-.67,3.77,3.77,0,0,1-.75-.5A2,2,0,0,1,.11,19,.81.81,0,0,1,0,18.53a.9.9,0,0,0,.52.62,4.09,4.09,0,0,0,.77.34,13.19,13.19,0,0,0,1.65.39c1.12.2,2.26.32,3.4.42s2.28.17,3.42.19,2.29.07,3.43.06,2.29,0,3.43-.06,2.28-.11,3.42-.19,2.28-.21,3.39-.42a13.34,13.34,0,0,0,1.66-.39,4.4,4.4,0,0,0,.77-.34A.93.93,0,0,0,26.38,18.53Z"/><path class="cls-1" d="M26.38,22.92a.74.74,0,0,1-.12.43,1.87,1.87,0,0,1-.29.34,4.08,4.08,0,0,1-.75.5,10.65,10.65,0,0,1-1.64.67,23.82,23.82,0,0,1-3.42.78c-1.15.2-2.32.31-3.48.41s-2.33.11-3.49.13-2.33-.05-3.49-.13-2.33-.2-3.48-.4a25.28,25.28,0,0,1-3.42-.79,10.65,10.65,0,0,1-1.64-.67,3.77,3.77,0,0,1-.75-.5,2.43,2.43,0,0,1-.3-.34A.81.81,0,0,1,0,22.92a1,1,0,0,0,.52.62,3.51,3.51,0,0,0,.77.33,11.67,11.67,0,0,0,1.65.4c1.12.2,2.26.32,3.4.42s2.28.16,3.42.19,2.29.07,3.43.06,2.29,0,3.43-.06,2.28-.11,3.42-.19,2.28-.22,3.39-.42a11.8,11.8,0,0,0,1.66-.4,3.72,3.72,0,0,0,.77-.33A1,1,0,0,0,26.38,22.92Z"/><path class="cls-1" d="M26.38,27.31a.73.73,0,0,1-.12.42,1.37,1.37,0,0,1-.29.34,4.08,4.08,0,0,1-.75.5,10.65,10.65,0,0,1-1.64.67,25.28,25.28,0,0,1-3.42.79c-1.15.2-2.32.31-3.48.41s-2.33.11-3.49.12-2.33,0-3.49-.12S7.37,30.23,6.22,30a22.58,22.58,0,0,1-3.42-.79,10.65,10.65,0,0,1-1.64-.67,3.77,3.77,0,0,1-.75-.5,1.66,1.66,0,0,1-.3-.34A.8.8,0,0,1,0,27.31a.91.91,0,0,0,.52.61,4.09,4.09,0,0,0,.77.34,13.19,13.19,0,0,0,1.65.39c1.12.21,2.26.32,3.4.42s2.28.17,3.42.19,2.29.07,3.43.06,2.29,0,3.43-.05,2.28-.12,3.42-.2,2.28-.21,3.39-.42a11.77,11.77,0,0,0,1.66-.39,3.76,3.76,0,0,0,.77-.34A.93.93,0,0,0,26.38,27.31Z"/></g></g></svg>