<svg xmlns="http://www.w3.org/2000/svg" viewBox="0 0 787.48 106.71"><defs><style>.cls-1{fill:#fff;}</style></defs><title>Building Ideas</title><g id="Camada_2" data-name="Camada 2"><g id="Layer_1" data-name="Layer 1"><path class="cls-1" d="M76.82,51.11V68.29A13.84,13.84,0,0,1,63,82.16H0V5.34H59.75A13.84,13.84,0,0,1,73.62,19.21V34.89a14.11,14.11,0,0,1-1.38,6A13.76,13.76,0,0,1,76.82,51.11ZM13.87,16.86a2.36,2.36,0,0,0-2.34,2.35V34.89a2.36,2.36,0,0,0,2.34,2.35H59.75a2.37,2.37,0,0,0,2.35-2.35V19.21a2.37,2.37,0,0,0-2.35-2.35ZM65.3,51.11A2.37,2.37,0,0,0,63,48.76H13.87a2.37,2.37,0,0,0-2.34,2.35V68.29a2.36,2.36,0,0,0,2.34,2.34H63a2.36,2.36,0,0,0,2.35-2.34Z"/><path class="cls-1" d="M151,20.27v48a13.84,13.84,0,0,1-13.87,13.87H102A13.84,13.84,0,0,1,88.09,68.29v-48H99.61v48A2.36,2.36,0,0,0,102,70.63h35.21a2.36,2.36,0,0,0,2.35-2.34v-48Z"/><path class="cls-1" d="M173.62,0V11.53H162.09V0ZM162.09,20.27h11.53V82.16H162.09Z"/><path class="cls-1" d="M184.27,0H195.8V68.29a2.36,2.36,0,0,0,2.35,2.34h11.52V82.16H198.15a13.85,13.85,0,0,1-13.88-13.87V0Z"/><path class="cls-1" d="M276.87,0V82.16H227.79a13.84,13.84,0,0,1-13.87-13.87V34.15a13.85,13.85,0,0,1,13.87-13.88h37.56V0ZM263,70.63a2.36,2.36,0,0,0,2.35-2.34V34.15A2.37,2.37,0,0,0,263,31.8H227.79a2.37,2.37,0,0,0-2.35,2.35V68.29a2.36,2.36,0,0,0,2.35,2.34Z"/><path class="cls-1" d="M299.67,0V11.53H288.14V0ZM288.14,20.27h11.53V82.16H288.14Z"/><path class="cls-1" d="M371.89,34.15v48H360.37v-48A2.37,2.37,0,0,0,358,31.8H322.81a2.37,2.37,0,0,0-2.35,2.35v48H308.94V20.27H358A13.85,13.85,0,0,1,371.89,34.15Z"/><path class="cls-1" d="M444.73,58.68V92.84a13.84,13.84,0,0,1-13.87,13.87h-38.2V95.18h38.2a2.37,2.37,0,0,0,2.35-2.34V82.16H395.65a13.84,13.84,0,0,1-13.87-13.87V34.15a13.85,13.85,0,0,1,13.87-13.88h35.21a13.85,13.85,0,0,1,13.87,13.88V58.68ZM430.86,70.63a2.36,2.36,0,0,0,2.35-2.34V34.15a2.37,2.37,0,0,0-2.35-2.35H395.65a2.37,2.37,0,0,0-2.35,2.35V68.29a2.36,2.36,0,0,0,2.35,2.34Z"/><path class="cls-1" d="M487.25,5.34h11.52V82.16H487.25Z"/><path class="cls-1" d="M570,0V82.16H521a13.84,13.84,0,0,1-13.87-13.87V34.15A13.85,13.85,0,0,1,521,20.27h37.56V0ZM556.16,70.63a2.36,2.36,0,0,0,2.35-2.34V34.15a2.37,2.37,0,0,0-2.35-2.35H521a2.36,2.36,0,0,0-2.34,2.35V68.29A2.36,2.36,0,0,0,521,70.63Z"/><path class="cls-1" d="M642.55,34.15V57H591.13V68.29a2.36,2.36,0,0,0,2.34,2.34h49.08V82.16H593.47A13.84,13.84,0,0,1,579.6,68.29V34.15a13.85,13.85,0,0,1,13.87-13.88h35.21A13.85,13.85,0,0,1,642.55,34.15ZM631,45.46V34.15a2.37,2.37,0,0,0-2.35-2.35H593.47a2.36,2.36,0,0,0-2.34,2.35V45.46Z"/><path class="cls-1" d="M716.46,34.15v48H667.38A13.85,13.85,0,0,1,653.5,68.29V45.46h51.44V34.15a2.37,2.37,0,0,0-2.35-2.35H653.5V20.27h49.09A13.85,13.85,0,0,1,716.46,34.15ZM704.94,57H665V68.29a2.36,2.36,0,0,0,2.35,2.34h37.56Z"/><path class="cls-1" d="M787.48,36.5H776V34.15a2.37,2.37,0,0,0-2.35-2.35H738.4a2.37,2.37,0,0,0-2.35,2.35v9a2.37,2.37,0,0,0,2.35,2.35h35.21a13.84,13.84,0,0,1,13.87,13.87v9a13.84,13.84,0,0,1-13.87,13.87H738.4a13.84,13.84,0,0,1-13.87-13.87V65.94h11.52v2.35a2.36,2.36,0,0,0,2.35,2.34h35.21A2.36,2.36,0,0,0,776,68.29v-9A2.37,2.37,0,0,0,773.61,57H738.4a13.84,13.84,0,0,1-13.87-13.87v-9A13.85,13.85,0,0,1,738.4,20.27h35.21a13.85,13.85,0,0,1,13.87,13.88Z"/></g></g></svg>