<svg xmlns="http://www.w3.org/2000/svg" viewBox="0 0 23.32 31.86"><defs><style>.cls-1{fill:#fff;}</style></defs><title>editorial</title><g id="Layer_2" data-name="Layer 2"><g id="Layer_1-2" data-name="Layer 1"><path class="cls-1" d="M22.89.42v31H.42V.42H22.89M23.32,0H0V31.86H23.32V0Z"/><path class="cls-1" d="M21.38,2.17V7.3H1.93V2.17H21.38m.32-.32H1.62V7.62H21.7V1.85Z"/><path class="cls-1" d="M21.38,20.17v10H1.93v-10H21.38m.32-.32H1.62V30.47H21.7V19.85Z"/><path class="cls-1" d="M8,13v5.13H1.93V13H8m.32-.32H1.62v5.77H8.31V12.7Z"/><rect class="cls-1" x="1.62" y="8.67" width="20.08" height="0.46"/><rect class="cls-1" x="1.62" y="10.82" width="20.08" height="0.46"/><rect class="cls-1" x="8.77" y="12.7" width="12.93" height="0.46"/><rect class="cls-1" x="8.77" y="14.49" width="12.93" height="0.46"/><rect class="cls-1" x="8.77" y="16.28" width="12.93" height="0.46"/><rect class="cls-1" x="8.77" y="18.07" width="12.93" height="0.46"/></g></g></svg>