<svg xmlns="http://www.w3.org/2000/svg" viewBox="0 0 25.99 31"><defs><style>.cls-1{fill:#fff;}</style></defs><title>plataformamedida</title><g id="Layer_2" data-name="Layer 2"><g id="Layer_1-2" data-name="Layer 1"><path class="cls-1" d="M6.81,31H0V0H6.81ZM.49,30.51H6.32V.49H.49Z"/><path class="cls-1" d="M26,6.81H8.5V0H26ZM9,6.32h16.5V.49H9Z"/><rect class="cls-1" x="1.12" y="2.43" width="4.79" height="0.87"/><rect class="cls-1" x="8.53" y="8.96" width="17.43" height="0.29"/><rect class="cls-1" x="8.53" y="10.37" width="17.43" height="0.29"/><rect class="cls-1" x="8.53" y="11.77" width="17.43" height="0.29"/><rect class="cls-1" x="8.53" y="13.17" width="17.43" height="0.29"/><rect class="cls-1" x="15.06" y="18.68" width="10.9" height="0.39"/><rect class="cls-1" x="15.06" y="20.09" width="10.9" height="0.39"/><rect class="cls-1" x="1.12" y="5.04" width="4.79" height="0.87"/><rect class="cls-1" x="1.12" y="7.66" width="4.79" height="0.87"/><rect class="cls-1" x="1.12" y="10.27" width="4.79" height="0.87"/><rect class="cls-1" x="1.12" y="12.89" width="4.79" height="0.87"/><rect class="cls-1" x="1.12" y="15.5" width="4.79" height="0.87"/><rect class="cls-1" x="1.12" y="17.9" width="4.79" height="0.87"/><rect class="cls-1" x="1.12" y="20.51" width="4.79" height="0.87"/><rect class="cls-1" x="1.12" y="23.13" width="4.79" height="0.87"/><rect class="cls-1" x="1.12" y="25.74" width="4.79" height="0.87"/><rect class="cls-1" x="1.12" y="28.36" width="4.79" height="0.87"/><polygon class="cls-1" points="10.25 5.19 9.86 4.89 11.33 2.92 12.69 4.28 14.22 3.13 15.01 1.54 16.32 3.11 17.18 3.63 18 2.62 19.52 2.62 20.09 3.18 21.29 2.18 22.57 2.18 22.95 2.55 24.31 1.78 24.56 2.2 22.87 3.17 22.37 2.67 21.47 2.67 20.06 3.85 19.32 3.11 18.23 3.11 17.3 4.27 15.99 3.49 15.12 2.44 14.61 3.46 12.64 4.93 11.39 3.67 10.25 5.19"/><rect class="cls-1" x="8.53" y="16.15" width="0.98" height="4.58"/><rect class="cls-1" x="10.05" y="17.9" width="0.86" height="2.83"/><rect class="cls-1" x="13.1" y="17.9" width="0.96" height="2.83"/><rect class="cls-1" x="11.58" y="16.81" width="0.73" height="3.92"/><path class="cls-1" d="M16.37,30a3.83,3.83,0,1,1,3.83-3.83A3.84,3.84,0,0,1,16.37,30Zm0-7.41A3.58,3.58,0,1,0,20,26.18,3.58,3.58,0,0,0,16.37,22.6Z"/><rect class="cls-1" x="14.94" y="23.05" width="0.25" height="3.86" transform="translate(-13.51 19.1) rotate(-47.29)"/><rect class="cls-1" x="16.04" y="24.96" width="3.71" height="0.25" transform="translate(-11.97 17.5) rotate(-40.25)"/><rect class="cls-1" x="18.1" y="24.75" width="0.25" height="3.51" transform="translate(-10.34 41.3) rotate(-82.88)"/></g></g></svg>