<svg xmlns="http://www.w3.org/2000/svg" viewBox="0 0 31.39 32"><defs><style>.cls-1{fill:#fff;}</style></defs><title>webdesign</title><g id="Layer_2" data-name="Layer 2"><g id="Layer_1-2" data-name="Layer 1"><path class="cls-1" d="M30,21.66H1.41A1.41,1.41,0,0,1,0,20.26V1.41A1.41,1.41,0,0,1,1.41,0H30a1.41,1.41,0,0,1,1.4,1.41V20.26A1.4,1.4,0,0,1,30,21.66ZM1.41.69a.72.72,0,0,0-.72.72V20.26a.72.72,0,0,0,.72.72H30a.72.72,0,0,0,.71-.72V1.41A.71.71,0,0,0,30,.69Z"/><path class="cls-1" d="M28.7,8H2.7V2.15h26ZM3.31,7.34H28.08V2.77H3.31Z"/><path class="cls-1" d="M16.52,19.84H2.76V13.38H16.52ZM3.45,19.15H15.83V14.06H3.45Z"/><rect class="cls-1" x="9.4" y="9.77" width="13.98" height="0.67"/><rect class="cls-1" x="9.4" y="10.98" width="13.98" height="0.53"/><rect class="cls-1" x="17.46" y="13.42" width="11.24" height="0.91"/><rect class="cls-1" x="17.46" y="16.15" width="11.24" height="0.52"/><rect class="cls-1" x="17.46" y="18.37" width="11.24" height="0.52"/><path class="cls-1" d="M23,29.26H8.36V21H23Zm-14-.68H22.34V21.66H9.05Z"/><path class="cls-1" d="M28.5,32H2.89V28.58H28.5ZM3.58,31.31H27.82v-2H3.58Z"/></g></g></svg>