<svg xmlns="http://www.w3.org/2000/svg" viewBox="0 0 28.13 31"><defs><style>.cls-1{fill:#fff;}</style></defs><title>webMarketing</title><g id="Layer_2" data-name="Layer 2"><g id="Layer_1-2" data-name="Layer 1"><path class="cls-1" d="M21.94,8.06l-.61.74a12.13,12.13,0,1,1-2-1.47l.6-.75a13.14,13.14,0,1,0,2,1.48Z"/><polygon class="cls-1" points="17.01 12.21 17.27 11.89 17 12.21 17.01 12.21"/><path class="cls-1" d="M20,17.85A6.84,6.84,0,1,1,13.15,11a6.75,6.75,0,0,1,2.73.58l.31-.39a7.35,7.35,0,1,0,2,1.39l-.3.37A6.82,6.82,0,0,1,20,17.85Z"/><path class="cls-1" d="M12.69,17.47l.55-.66h-.09a1,1,0,1,0,1,1.05.93.93,0,0,0,0-.29l-.54.66Z"/><path class="cls-1" d="M17.31,11.84a7.41,7.41,0,0,1,.91.75L21.33,8.8c-.27-.25-.56-.49-.85-.71Z"/><path class="cls-1" d="M14.15,17.56,17.92,13a8.24,8.24,0,0,0-.91-.75l-3.77,4.6A1.05,1.05,0,0,1,14.15,17.56Z"/><path class="cls-1" d="M21.09,7.36l.85.7,1.4-1.72-.69.06L24.51,4l-.05,0-1.9,2.46-.14-.77-.25.31.09.07Z"/><path class="cls-1" d="M20.48,8.09c.29.22.58.46.85.71l.61-.74-.85-.7Z"/><path class="cls-1" d="M17,12.21a8.24,8.24,0,0,1,.91.75l.3-.37a7.41,7.41,0,0,0-.91-.75l0,.06Z"/><path class="cls-1" d="M13.24,16.81l-.55.66.92.75.54-.66A1.05,1.05,0,0,0,13.24,16.81Z"/><path class="cls-1" d="M17.31,11.84l3.17-3.75-.06,0-3.11,3.79Z"/><polygon class="cls-1" points="17.27 11.89 17.31 11.84 17.31 11.84 17.27 11.89"/><polygon class="cls-1" points="24.46 3.91 25.47 2.61 25.16 0 22.02 3.34 22.43 5.6 24.07 3.59 24.46 3.91"/><polygon class="cls-1" points="24.46 3.91 24.07 3.59 22.43 5.6 22.56 6.37 24.46 3.91"/><polygon class="cls-1" points="23.34 6.34 25.71 6.14 28.13 2.25 25.52 2.62 24.51 3.95 24.99 4.34 23.34 6.34"/><polygon class="cls-1" points="23.34 6.34 24.99 4.34 24.51 3.95 22.65 6.4 23.34 6.34"/></g></g></svg>