<svg xmlns="http://www.w3.org/2000/svg" viewBox="0 0 136.02 62.76"><defs><style>.cls-1{fill:#6c7166;}.cls-2{fill:none;}.cls-3,.cls-4{fill:#aa8557;}.cls-4{font-size:11.08px;font-family:Orbitron-Medium, Orbitron Medium;}.cls-5{fill:#7a9095;}</style></defs><title>Logo</title><g id="Camada_2" data-name="Camada 2"><g id="Layer_1" data-name="Layer 1"><polygon class="cls-1" points="112.14 31.49 112.14 31.49 112.14 31.49 112.14 31.49 111.77 30.85 111.59 30.53 110.56 28.75 107.4 28.75 108.98 26.01 112.14 26.01 115.31 26.01 113.73 23.27 110.56 23.27 107.4 23.27 105.81 26.01 104.23 28.75 105.81 31.49 108.98 31.49 108.98 31.49 110.56 34.23 110.56 34.22 110.56 34.23 107.4 34.23 104.23 34.23 102.65 36.98 105.81 36.98 108.98 36.98 112.14 36.98 113.73 34.23 112.14 31.49 112.14 31.49"/><polygon class="cls-2" points="120.78 26.01 119.2 28.75 122.37 28.75 125.53 28.75 123.95 26.01 120.78 26.01"/><path class="cls-1" d="M127.12,26l-1.59-2.74H119.2L117.62,26,116,28.75l1.58,2.74H124l-1.58,2.74H119.2L120.78,37l0,0,0,0H124l1.83-3.17h0l1.34-2.32h0l1.58-2.74Zm-4.75,2.74H119.2L120.78,26H124l1.58,2.74Z"/><polygon class="cls-3" points="99.83 24.31 99.82 24.31 97.08 22.73 94.34 21.15 91.6 22.73 88.86 24.31 88.86 26.99 88.86 27.48 88.86 30.64 88.86 33.81 91.6 35.39 91.6 35.39 94.34 36.98 97.08 35.39 94.34 33.81 91.6 32.23 91.6 32.23 91.6 29.06 91.6 29.06 91.6 29.06 94.34 27.48 91.6 25.9 94.34 24.31 97.08 25.9 96.54 26.21 96.52 26.22 96.52 26.22 94.34 27.48 97.08 29.06 97.08 29.06 99.83 27.48 99.82 27.48 99.83 27.48 99.83 24.31"/><path class="cls-3" d="M87.08,25.9V22.73l-2.74-1.58-1.72-1,1.72,1V18h0L81.6,16.4v3.16L78.87,18v3.17l2.73,1.57h0V25.9l2.05-1.19L81.6,25.9h0v3.16h0v6.33L84.34,37h0l2.74-1.58-2.74-1.58V30.64l-1.69-1,1.69,1V27.48h0l-.71-.41.71.41V24.31h0Zm-5.47-6.34,1.15-.08-1.15.08Zm0,9.5h0l1-.57Z"/><polygon class="cls-3" points="74.36 22.73 74.36 25.9 74.36 29.06 74.36 32.23 71.62 33.81 68.88 32.23 68.88 29.06 67.16 28.07 68.88 29.06 68.88 25.9 68.88 25.9 68.88 25.9 68.88 25.9 68.88 25.9 71.62 24.31 74.36 25.89 74.36 22.73 71.62 21.15 71.62 21.15 71.62 21.15 71.62 21.15 71.62 21.15 68.88 22.73 68.88 22.73 68.88 22.73 68.88 22.73 68.88 22.73 68.88 24.36 68.88 22.73 66.14 24.31 66.14 24.31 66.14 27.48 66.14 30.64 66.14 33.81 68.88 35.39 71.62 36.98 71.62 36.98 71.62 36.98 71.62 36.98 74.36 35.39 77.1 33.81 77.1 30.64 77.1 27.48 77.1 24.31 74.36 22.73"/><path class="cls-3" d="M61.62,32.23l-2.74-1.59h0l-2.74-1.58V16.4L53.4,18v9.5l-2.74,1.58h0l-2.74,1.58v3.17l2.74,1.58h0L53.4,37l2.74-1.59V32.23l2.74,1.58h0l2.74,1.58L64.36,37V33.81ZM53.4,33.81l-2.74-1.58h0l2.74-1.59Z"/><text class="cls-4" transform="translate(47.17 48.46)">Building Ideas</text><polygon class="cls-3" points="0 0 28.28 16.33 56.56 0 0 0"/><polygon class="cls-5" points="28.28 48.99 28.28 16.33 0 0 28.28 48.99"/><polygon class="cls-1" points="56.56 0 28.28 48.99 28.28 16.33 56.56 0"/></g></g></svg>