<svg xmlns="http://www.w3.org/2000/svg" viewBox="0 0 21.48 13.67"><defs><style>.cls-1{fill:#7a9095;}</style></defs><title>googleplus</title><g id="Camada_2" data-name="Camada 2"><g id="Layer_1" data-name="Layer 1"><path class="cls-1" d="M6.83,5.86h6.46A6.09,6.09,0,0,1,13.4,7a6.31,6.31,0,0,1-6.57,6.68A6.84,6.84,0,0,1,6.83,0a6.52,6.52,0,0,1,4.58,1.79L9.56,3.57a3.9,3.9,0,0,0-2.73-1A4.28,4.28,0,0,0,2.6,6.84a4.27,4.27,0,0,0,4.23,4.31,3.68,3.68,0,0,0,3.88-3H6.83V5.86Zm14.65,0H19.53V3.91h-2v2h-2V7.81h2v2h2V7.81h1.95Z"/></g></g></svg>