<svg xmlns="http://www.w3.org/2000/svg" viewBox="0 0 16.14 16.14"><defs><style>.cls-1{fill:#7a9095;}</style></defs><title>instagram</title><g id="Camada_2" data-name="Camada 2"><g id="Layer_1" data-name="Layer 1"><path class="cls-1" d="M12.49,16.14H3.65A3.66,3.66,0,0,1,0,12.49V3.66A3.66,3.66,0,0,1,3.65,0h8.84a3.66,3.66,0,0,1,3.65,3.66v8.83A3.66,3.66,0,0,1,12.49,16.14ZM3.65,1.61a2,2,0,0,0-2,2.05v8.83a2,2,0,0,0,2,2h8.84a2,2,0,0,0,2-2V3.66a2.05,2.05,0,0,0-2-2ZM8.07,12.29a4.17,4.17,0,1,1,4.17-4.17A4.17,4.17,0,0,1,8.07,12.29Zm0-6.74a2.57,2.57,0,1,0,2.57,2.57A2.58,2.58,0,0,0,8.07,5.55ZM12.4,2.92A1.06,1.06,0,1,0,13.46,4,1.06,1.06,0,0,0,12.4,2.92Z"/></g></g></svg>