<svg xmlns="http://www.w3.org/2000/svg" viewBox="0 0 18.2 17.39"><defs><style>.cls-1{fill:#7a9095;}</style></defs><title>Linkedin</title><g id="Camada_2" data-name="Camada 2"><g id="Layer_1" data-name="Layer 1"><path class="cls-1" d="M18.2,10.66v6.73H14.3V11.11c0-1.57-.57-2.65-2-2.65a2.12,2.12,0,0,0-2,1.43,2.73,2.73,0,0,0-.13.95v6.55H6.29s0-10.63,0-11.73h3.9V7.32a.08.08,0,0,0,0,0h0v0a3.87,3.87,0,0,1,3.52-1.94c2.56,0,4.49,1.68,4.49,5.28ZM2.21,0a2,2,0,1,0,0,4.06h0A2,2,0,1,0,2.21,0Zm-2,17.39h3.9V5.66H.23Z"/></g></g></svg>